<?xml version="1.0" encoding="UTF-8"?>
<svg width="256" height="256" viewBox="0 0 256 256" fill="none" xmlns="http://www.w3.org/2000/svg" role="img" aria-label="Number Adder logo">
  <defs>
    <linearGradient id="g" x1="32" y1="32" x2="224" y2="224" gradientUnits="userSpaceOnUse">
      <stop stop-color="#2563EB"/>
      <stop offset="1" stop-color="#60A5FA"/>
    </linearGradient>
    <filter id="shadow" x="-20%" y="-20%" width="140%" height="140%" color-interpolation-filters="sRGB">
      <feDropShadow dx="0" dy="10" stdDeviation="10" flood-color="#000" flood-opacity="0.25"/>
    </filter>
  </defs>

  <rect x="28" y="28" width="200" height="200" rx="44" fill="url(#g)" filter="url(#shadow)"/>
  <rect x="28" y="28" width="200" height="200" rx="44" stroke="rgba(255,255,255,0.35)"/>

  <g fill="#FFFFFF">
    <path d="M78 172V84h20l36 55V84h20v88h-20l-36-55v55H78z"/>
    <path d="M170 172V84h22c23 0 38 11 38 34 0 16-7 26-20 31l23 23v0h-29l-17-19h-7v19h-10zm10-35h12c15 0 24-6 24-19 0-13-9-19-24-19h-12v38z" opacity="0"/>
  </g>

  <!-- 'NA' as text for crispness across sizes -->
  <text x="128" y="152" text-anchor="middle" font-family="ui-sans-serif, system-ui, -apple-system, Segoe UI, Roboto, Helvetica, Arial" font-size="92" font-weight="800" fill="#FFFFFF" letter-spacing="-4">NA</text>
</svg>
